<svg viewBox="0 0 1024 1024" version="1.1"
  xmlns="http://www.w3.org/2000/svg" width="20" height="20">
  <path d="M146.285714 274.285714h731.428572a18.285714 18.285714 0 0 1 18.285714 18.285715v548.571428a18.285714 18.285714 0 0 1-18.285714 18.285714H146.285714a18.285714 18.285714 0 0 1-18.285714-18.285714V292.571429a18.285714 18.285714 0 0 1 18.285714-18.285715z m18.285715 36.571429v512h694.857142v-512h-694.857142z m128 146.285714a18.285714 18.285714 0 1 1 0-36.571428h438.857142a18.285714 18.285714 0 1 1 0 36.571428H292.571429z m0 146.285714a18.285714 18.285714 0 1 1 0-36.571428h219.428571a18.285714 18.285714 0 1 1 0 36.571428H292.571429z m10.130285-295.643428a18.285714 18.285714 0 0 1-20.260571-30.427429l219.428571-146.285714a18.285714 18.285714 0 0 1 20.260572 0l219.428571 146.285714a18.285714 18.285714 0 0 1-20.260571 30.427429L512 168.265143 302.701714 307.785143z"></path>
</svg>
